<svg xmlns="http://www.w3.org/2000/svg" version="1.1" xmlns:xlink="http://www.w3.org/1999/xlink" xmlns:svgjs="http://svgjs.com/svgjs" width="150.90152" height="150.39999"><svg xmlns:dc="http://purl.org/dc/elements/1.1/" xmlns:cc="http://creativecommons.org/ns#" xmlns:rdf="http://www.w3.org/1999/02/22-rdf-syntax-ns#" xmlns:svg="http://www.w3.org/2000/svg" xmlns="http://www.w3.org/2000/svg" xmlns:sodipodi="http://sodipodi.sourceforge.net/DTD/sodipodi-0.dtd" xmlns:inkscape="http://www.inkscape.org/namespaces/inkscape" version="1.1" id="SvgjsSvg1090" x="0px" y="0px" viewBox="0 0 150.90152 150.39999" xml:space="preserve" sodipodi:docname="wild.svg" width="150.90152" height="150.39999" inkscape:version="1.0.2 (e86c870879, 2021-01-15)"><metadata id="SvgjsMetadata1089"><rdf:rdf><cc:work rdf:about=""><dc:format>image/svg+xml</dc:format><dc:type rdf:resource="http://purl.org/dc/dcmitype/StillImage"></dc:type></cc:work></rdf:rdf></metadata><defs id="SvgjsDefs1088"></defs><sodipodi:namedview pagecolor="#ffffff" bordercolor="#666666" borderopacity="1" objecttolerance="10" gridtolerance="10" guidetolerance="10" inkscape:pageopacity="0" inkscape:pageshadow="2" inkscape:window-width="1920" inkscape:window-height="1020" id="SvgjsSodipodi:namedview1087" showgrid="false" inkscape:zoom="5.4720745" inkscape:cx="44.65801" inkscape:cy="75.20004" inkscape:window-x="0" inkscape:window-y="0" inkscape:window-maximized="1" inkscape:current-layer="g6111-38-2-3"></sodipodi:namedview>
<style type="text/css" id="SvgjsStyle1086">
	.st0{fill-rule:evenodd;clip-rule:evenodd;}
	.st1{fill-rule:evenodd;clip-rule:evenodd;fill:#FFFFFF;}
	.st2{fill:#FFFFFF;}
	.st3{fill-rule:evenodd;clip-rule:evenodd;fill:#FF5555;}
	.st4{fill-rule:evenodd;clip-rule:evenodd;fill:#5555FF;}
	.st5{fill-rule:evenodd;clip-rule:evenodd;fill:#FFAA00;}
	.st6{fill-rule:evenodd;clip-rule:evenodd;fill:#55AA55;}
	.st7{fill-rule:evenodd;clip-rule:evenodd;fill:#00AA00;}
	.st8{fill:none;stroke:#FFFFFF;stroke-width:4;}
</style>
<path id="SvgjsPath1085" d="m -4676.8468,123.59096 -20,20 v 24 l 20,-20 v 96 h 20 v -120 z m -52,160 c -22,0 -40,-18 -40,-40 v 80 c 0,11.2 8.8,20 20,20 h 160 c 11.2,0 20,-8.8 20,-20 v -200 c 0,88.4 -71.6,160 -160,160 z m 130,-10 h 10 v 48 l 10,-10 v 12 l -10,10 h -10 z m 10,-250 h -160 c -11.2,0 -20,8.8 -20,20 v 200 c 0,-88.4 71.6,-160 160,-160 22,0 40,18 40,40 v -80 c 0,-11.2 -8.8,-20 -20,-20 z m -150,70 h -10 v -48 l -10,10 v -12 l 10,-10 h 10 z" style="stroke-width:4"></path>
<path class="st0" d="m -4965.2468,123.47746 c -22,0 -40,18 -40,40 v 40 c 0,22 18,40 40,40 22,0 40,-18 40,-40 v -40 c 0,-22.4 -18,-40 -40,-40 z m 20,80 c 0,11.2 -8.8,20 -20,20 -11.2,0 -20,-8.8 -20,-20 v -40 c 0,-11.2 8.8,-20 20,-20 11.2,0 20,8.8 20,20 z m -80,-150 v 20 c 0,5.6 -4.4,10 -10,10 -5.6,0 -10,-4.4 -10,-10 v -20 c 0,-5.6 4.4,-10 10,-10 5.2,0 10,4.4 10,10 z m 0,230 c -22,0 -40,-18 -40,-40 v 80 c 0,11.2 8.8,20 20,20 h 160 c 11.2,0 20,-8.8 20,-20 v -200 c 0,88.4 -72,160 -160,160 z m 130,-10 c 11.2,0 20,8.8 20,20 v 20 c 0,11.2 -8.8,20 -20,20 -11.2,0 -20,-8.8 -20,-20 v -20 c 0,-11.2 8.8,-20 20,-20 z m -10,40 v -20 c 0,-5.6 4.4,-10 10,-10 5.6,0 10,4.4 10,10 v 20 c 0,5.6 -4.4,10 -10,10 -5.6,0 -10,-4.4 -10,-10 z m 20,-290 h -160 c -11.2,0 -20,8.8 -20,20 v 200 c 0,-88.4 71.6,-160 160,-160 22,0 40,18 40,40 v -80 c 0,-11.2 -9.2,-20 -20,-20 z m -130,50 c 0,11.2 -8.8,20 -20,20 -11.2,0 -20,-8.8 -20,-20 v -20 c 0,-11.2 8.8,-20 20,-20 11.2,0 20,8.8 20,20 z" id="SvgjsPath1084"></path>
<path id="SvgjsPath1083" d="m -2922.4468,123.59096 v 40 h 20 v -20 h 40 l -40,100 h 20 l 40,-100 v -20 h -60 z m -26,160 c -22,0 -40,-18 -40,-40 v 80 c 0,11.2 8.8,20 20,20 h 160 c 11.2,0 20,-8.8 20,-20 v -200 c 0,88.4 -71.6,160 -160,160 z m 140,-10 -20,50 h 20 v -10 h 10 v 20 h -10 -30 v -10 l 20,-50 z m 0,-250 h -160 c -10.8,0 -20,8.8 -20,20 v 200 c 0,-88.4 71.6,-160 160,-160 22.4,0 40,17.6 40,40 v -80 c 0,-11.2 -8.8,-20 -20,-20 z m -130,20 -20,50 h -10 l 20,-50 h -20 v 10 h -10 v -20 h 10 30 z" style="stroke-width:4"></path>
<path id="SvgjsPath1082" d="m -4376.0468,123.59096 c -22,0 -40,18 -40,40 v 4 h 20 v -4 c 0,-11.2 8.8,-20 20,-20 11.2,0 20,8.8 20,20 0,4.4 -3.6,13.2 -7.6,16.4 -21.2,16.8 -20.8,14 -52.4,35.6 v 28 h 40 40 v -20 -8 h -20 v 8 h -20 -16 c 24.8,-17.6 26.4,-17.2 46,-34.4 6.4,-5.6 10,-16.8 10,-25.6 0,-22.4 -18,-40 -40,-40 z m -56,160 c -22,0 -40,-18 -40,-40 v 80 c 0,11.2 8.8,20 20,20 h 160 c 11.2,0 20,-8.8 20,-20 v -200 c 0,88.4 -71.6,160 -160,160 z m 150,-10 v 14 c -15.6,10.8 -15.6,9.6 -26,17.6 -2,1.6 -4,6 -4,8.4 0,5.6 4.4,10 10,10 5.6,0 10,-4.4 10,-10 v -2 h 10 v 2 c 0,11.2 -8.8,20 -20,20 -11.2,0 -20,-8.8 -20,-20 0,-4.4 2,-10 5.2,-12.8 9.6,-8.8 10.8,-8.4 22.8,-17.2 h -8 -10 v 4 h -10 v -4 -10 h 20 z m -10,-250 h -160 c -11.2,0 -20,8.8 -20,20 v 200 c 0,-88.4 71.6,-160 160,-160 22,0 40,18 40,40 v -80 c 0,-11.2 -9.2,-20 -20,-20 z m -150,60 h 10 v -4 h 10 v 4 10 h -20 -20 v -14 c 15.6,-10.8 15.6,-9.6 26,-17.6 2,-1.6 4,-6 4,-8.4 0,-5.6 -4.4,-10 -10,-10 -5.6,0 -10,4.4 -10,10 v 2 h -10 v -2 c 0,-11.2 8.8,-20 20,-20 11.2,0 20,8.8 20,20 0,4.4 -2,10 -5.2,12.8 -9.6,8.8 -10.8,8.4 -22.8,17.2 z" style="stroke-width:4"></path>
<path id="SvgjsPath1081" d="m -4075.2468,123.59096 c -16.4,0 -30,13.6 -30,30 h 20 c 0,-5.6 4.4,-10 10,-10 5.6,0 10,4.4 10,10 0,5.6 -4.4,10 -10,10 h -12 v 20 h 12 c 11.2,0 20,8.8 20,20 0,11.2 -8.8,20 -20,20 -11.2,0 -20,-8.8 -20,-20 h -20 c 0,22 18,40 40,40 22,0 40,-18 40,-40 0,-13.2 -6.4,-24.8 -16,-32 4,-5.2 6,-11.2 6,-18 0,-16.8 -13.6,-30 -30,-30 z m -60,160 c -22,0 -40,-18 -40,-40 v 80 c 0,11.2 8.8,20 20,20 h 160 c 11.2,0 20,-8.8 20,-20 v -200 c 0,88.4 -71.6,160 -160,160 z m 130.4,-10 c 11.2,0 20,8.8 20,20 h -10 c 0,-5.6 -4.4,-10 -10,-10 -5.6,0 -10,4.4 -10,10 0,5.6 4.4,10 10,10 h 6 v 10 h -6 c -2.4,0 -4.8,2 -4.8,4.8 0,2.4 2.4,4.8 4.8,4.8 2.4,0 4.8,-2 4.8,-4.8 h 10 c 0,8.4 -6.8,15.2 -15.2,15.2 -8.4,0 -14.8,-6.8 -14.8,-15.2 0,-3.2 1.2,-6.4 3.2,-8.8 -4.8,-3.6 -8,-9.6 -8,-16 0,-11.2 8.8,-20 20,-20 z m 9.6,-250 h -160 c -11.2,0 -20,8.8 -20,20 v 200 c 0,-88.4 71.6,-160 160,-160 22,0 40,17.6 40,40 v -80 c 0,-11.2 -8.8,-20 -20,-20 z m -150.4,70 c -11.2,0 -20,-8.8 -20,-20 h 10 c 0,5.6 4.4,10 10,10 5.6,0 10,-4.4 10,-10 0,-5.6 -4.4,-10 -10,-10 h -6 v -10 h 6 c 2.4,0 4.8,-2.4 4.8,-4.8 0,-2.4 -2.4,-4.8 -4.8,-4.8 -2.4,0 -4.8,2 -4.8,4.8 h -10 c 0,-8.4 6.8,-15.2 15.2,-15.2 8.4,0 15.2,6.8 14.8,15.2 0,3.2 -1.2,6.4 -3.2,8.8 4.8,3.6 8,9.6 8,16 0,11.2 -8.8,20 -20,20 z" style="stroke-width:4"></path>
<path id="SvgjsPath1080" d="m -3783.2468,123.59096 -39.2,80 v 20 h 48 v 20 h 20 v -20 h 12 v -20 h -12 v -40 h -20 v 40 h -27.2 l 39.2,-80 z m -55.2,160 c -22,0 -40,-18 -40,-40 v 80 c 0,11.2 8.8,20 20,20 h 160 c 11.2,0 20,-8.8 20,-20 v -200 c 0,88.4 -71.6,160 -160,160 z m 115.6,-10 h 10 v 10 h 24 v 10 l -19.6,40 h -10.4 l 19.6,-40 h -13.6 v 20 h -10 v -20 h -6 v -10 h 6 z m 24.4,-250 h -160 c -11.2,0 -20,8.8 -20,20 v 200 c 0,-88.4 71.6,-160 160,-160 22,0 40,17.6 40,40 v -80 c 0,-11.2 -8.8,-20 -20,-20 z m -130.4,60 h -6 v 10 h -10 v -10 h -24 v -10 l 19.6,-40 h 10.4 l -19.6,40 h 13.6 v -20 h 10 v 20 h 6 z" style="stroke-width:4"></path>
<path id="SvgjsPath1079" d="m -3517.6468,123.59096 v 40 20 h 40 c 11.2,0 20,8.8 20,20 0,11.2 -8.8,20 -20,20 -11.2,0 -20,-8.8 -20,-20 h -20 c 0,22 18,40 40,40 22,0 40,-18 40,-40 0,-22 -18,-40 -40,-40 h -20 v -20 h 20 36 v -20 h -36 -20 z m -24,160 c -22,0 -40,-18 -40,-40 v 80 c 0,11.2 8.8,20 20,20 h 160 c 11.2,0 20,-8.8 20,-20 v -200 c 0,88.4 -71.6,160 -160,160 z m 130,-10 c 11.2,0 20,8.8 20,20 h -10 c 0,-5.6 -4.4,-10 -10,-10 -5.6,0 -10,4.4 -10,10 0,5.6 4.4,10 10,10 h 20 v 10 20 h -10 -10 -18 v -10 h 18 10 v -10 h -10 c -11.2,0 -20,-8.8 -20,-20 0,-11.2 8.8,-20 20,-20 z m 10,-250 h -160 c -11.2,0 -20,8.8 -20,20 v 200 c 0,-88.4 71.6,-160 160,-160 22,0 40,17.6 40,40 v -80 c 0,-11.2 -8.8,-20 -20,-20 z m -150,70 c -11.2,0 -20,-8.8 -20,-20 h 10 c 0,5.6 4.4,10 10,10 5.6,0 10,-4.4 10,-10 0,-5.6 -4.4,-10 -10,-10 h -20 v -10 -20 h 10 10 18 v 10 h -18 -10 v 10 h 10 c 11.2,0 20,8.8 20,20 0,11.2 -8.8,20 -20,20 z" style="stroke-width:4"></path>
<path id="SvgjsPath1078" d="m -3184.8468,123.59096 c -22,0 -40,18 -40,40 v 40 c 0,22 18,40 40,40 22,0 40,-18 40,-40 0,-22 -18,-40 -40,-40 -7.2,0 -14,2 -20,5.2 v -5.2 c 0,-11.2 8.8,-20 20,-20 8,0 14.4,4.4 17.6,11.2 l 18,-8.8 c -6.4,-13.6 -20,-22.4 -35.6,-22.4 z m 0,60 c 11.2,0 20,8.8 20,20 0,11.2 -8.8,20 -20,20 -11.2,0 -20,-8.8 -20,-20 0,-11.2 8.8,-20 20,-20 z m -60,-110 c 0,5.6 -4.4,10 -10,10 -5.6,0 -10,-4.4 -10,-10 0,-5.6 4.4,-10 10,-10 5.6,0 10,4.4 10,10 z m 120,220 c 0,-5.6 4.4,-10 10,-10 5.6,0 10,4.4 10,10 0,5.6 -4.8,10 -10,10 -5.6,0 -10,-4.4 -10,-10 z m -120,-10 c -22,0 -40,-18 -40,-40 v 80 c 0,11.2 8.8,20 20,20 h 160 c 11.2,0 20,-8.8 20,-20 v -200 c 0,88.4 -71.6,160 -160,160 z m 130,-10 c 11.2,0 20,8.8 20,20 v 20 c 0,11.2 -8.8,20 -20,20 -8,0 -14.8,-4.8 -17.6,-11.2 l 8.8,-4.4 c 1.6,3.2 4.8,5.6 8.8,5.6 5.6,0 10,-4.4 10,-10 v -2.8 c -2.8,2 -6.4,2.8 -10,2.8 -11.2,0 -20,-8.8 -20,-20 0,-11.2 8.8,-20 20,-20 z m 10,-250 h -160 c -11.2,0 -20,8.8 -20,20 v 200 c 0,-88.4 71.6,-160 160,-160 22,0 40,17.6 40,40 v -80 c 0,-11.2 -8.8,-20 -20,-20 z m -150,70 c -11.2,0 -20,-8.8 -20,-20 v -20 c 0,-11.2 8.8,-20 20,-20 7.6,0 14.4,4.4 17.6,11.2 l -8.8,4.4 c -1.6,-3.2 -4.8,-5.6 -8.8,-5.6 -5.6,0 -10,4.4 -10,10 v 2.8 c 2.8,-2 6.4,-2.8 10,-2.8 11.2,0 20,8.8 20,20 0,11.2 -8.8,20 -20,20 z" style="stroke-width:4"></path>
<path id="SvgjsPath1077" d="m -2591.6468,123.59096 c -16.4,0 -30,13.6 -30,30 0,6.8 2.4,12.8 6,18 -9.6,7.2 -16,18.8 -16,32 0,22 18,40 40,40 22,0 40,-18 40,-40 0,-13.2 -6.4,-24.8 -16,-32 4,-5.2 6,-11.2 6,-18 0,-16.8 -13.2,-30 -30,-30 z m 0,20 c 5.6,0 10,4.4 10,10 0,5.6 -4.4,10 -10,10 -5.6,0 -10,-4.4 -10,-10 0,-5.6 4.4,-10 10,-10 z m -2,40 c 0.8,0 1.2,0 2,0 11.2,0 20,8.8 20,20 0,11.2 -8.8,20 -20,20 -11.2,0 -20,-8.8 -20,-20 0,-10.4 8,-19.2 18,-20 z m -72.8,-135.2 c 0,-2.8 2,-4.8 4.8,-4.8 2.8,0 4.8,2.4 4.8,4.8 0,2.8 -2.4,4.8 -4.8,4.8 -2.4,0 -4.8,-2.4 -4.8,-4.8 z m 149.6,270.4 c 0,2.4 -2,4.8 -4.8,4.8 -2.8,0 -4.8,-2.4 -4.8,-4.8 0,-2.4 2.4,-4.8 4.8,-4.8 2.4,0 4.8,2 4.8,4.8 z m 5.2,-295.2 h -160 c -10.8,0 -20,8.8 -20,20 v 200 c 0,-88.4 71.6,-160 160,-160 22.4,0 40,17.6 40,40 v -80 c 0,-11.2 -8.8,-20 -20,-20 z m -150,70 c -11.2,0 -20,-8.8 -20,-20 0,-6.4 3.2,-12.4 8,-16 -2,-2.4 -3.2,-5.6 -3.2,-8.8 0,-8.4 6.8,-15.2 15.2,-15.2 8.4,0 15.2,6.8 15.2,15.2 0,3.2 -1.2,6.4 -3.2,8.8 4.8,3.6 8,9.6 8,16 0,11.2 -8.8,20 -20,20 z m 10,190 c -22,0 -40,-18 -40,-40 v 80 c 0,11.2 8.8,20 20,20 h 160 c 11.2,0 20,-8.8 20,-20 v -200 c 0,88.4 -71.6,160 -160,160 z m 130,-10 c 11.2,0 20,8.8 20,20 0,6.4 -3.2,12.4 -8,16 2,2.4 3.2,5.6 3.2,8.8 0,8.4 -6.8,15.2 -15.2,15.2 -8.4,0 -15.2,-6.8 -15.2,-15.2 0,-3.2 1.2,-6.4 3.2,-8.8 -4.8,-3.6 -8,-9.6 -8,-16 0,-11.2 8.8,-20 20,-20 z m -130,-200 c 0,5.6 -4.4,10 -10,10 -5.6,0 -10,-4.4 -10,-10 0,-5.2 4,-9.6 9.2,-10 0.4,0 0.8,0 0.8,0 5.6,0 10,4.4 10,10 z m 120,220 c 0,-5.6 4.4,-10 10,-10 5.6,0 10,4.4 10,10 0,5.6 -4.4,10 -10,10 0,0 -0.4,0 -0.8,0 -5.2,-0.8 -9.2,-4.8 -9.2,-10 z" style="stroke-width:4"></path>
<path id="SvgjsPath1076" d="m -2294.8468,123.59096 c -22,0 -40,18 -40,40 0,22 18,40 40,40 7.2,0 14,-2 20,-5.2 v 5.2 c 0,11.2 -8.8,20 -20,20 -8,0 -14.4,-4.4 -17.6,-11.2 l -18,8.8 c 6.4,13.2 20,22 35.6,22 22,0 40,-18 40,-40 v -40 c 0,-22 -18,-39.6 -40,-39.6 z m 0,20 c 11.2,0 20,8.8 20,20 0,11.2 -8.8,20 -20,20 -11.2,0 -20,-8.8 -20,-20 0,-11.2 9.2,-20 20,-20 z m -60,-90 c 0,5.6 -4.4,10 -10,10 -5.6,0 -10,-4.4 -10,-10 0,-5.6 4.4,-10 10,-10 5.6,0 10,4.4 10,10 z m 120,260 c 0,-5.6 4.4,-10 10,-10 5.6,0 10,4.4 10,10 0,5.6 -4.4,10 -10,10 -5.6,0 -10,-4.4 -10,-10 z m -120,-30 c -22,0 -40,-18 -40,-40 v 80 c 0,11.2 8.8,20 20,20 h 160 c 11.2,0 20,-8.8 20,-20 v -200 c 0,88.4 -71.6,160 -160,160 z m 130,-10 c 8,0 14.8,4.4 17.6,11.2 l -8.8,4.4 c -1.6,-3.2 -4.8,-5.6 -8.8,-5.6 -5.6,0 -10,4.4 -10,10 v 2.8 c 2.8,-2 6.4,-2.8 10,-2.8 11.2,0 20,8.8 20,20 0,11.2 -8.8,20 -20,20 -11.2,0 -20,-8.8 -20,-20 v -20 c 0,-11.2 8.8,-20 20,-20 z m 10,-250 h -160 c -10.8,0 -20,8.8 -20,20 v 200 c 0,-88.4 71.6,-160 160,-160 22,0 40,17.6 40,40 v -80 c 0,-11.2 -8.8,-20 -20,-20 z m -130,50 c 0,11.2 -8.8,20 -20,20 -7.6,0 -14.4,-4.8 -17.6,-11.2 l 8.8,-4.4 c 1.6,3.2 4.8,5.6 8.8,5.6 5.6,0 10,-4.4 10,-10 v -2.8 c -2.8,2 -6.4,2.8 -10,2.8 -11.2,0 -20,-8.8 -20,-20 0,-11.2 8.8,-20 20,-20 11.2,0 20,8.8 20,20 z" style="stroke-width:4"></path>
<path id="SvgjsPath1075" d="m -1998.0468,123.19096 c -15.2,0 -30.8,5.6 -42.4,17.6 -23.6,23.6 -23.6,61.6 0,84.8 23.6,23.6 61.6,23.6 84.8,0 23.2,-23.6 23.6,-61.6 0,-84.8 -11.6,-12 -26.8,-17.6 -42.4,-17.6 z m 0,20 c 6.8,0 14,2 20.4,5.6 l -54.8,54.8 c -9.2,-15.2 -6.8,-35.6 6.4,-48.8 7.6,-8 17.6,-11.6 28,-11.6 z m 34.4,19.6 c 9.2,15.2 6.8,35.6 -6.4,48.8 -13.2,13.2 -33.2,15.2 -48.8,6 z m -84.4,-116.8 -27.2,27.2 c -4.4,-7.6 -3.6,-17.6 3.2,-24.4 3.6,-4 8.8,-5.6 14,-5.6 3.6,0 7.2,0.8 10,2.8 z m 92.8,267.2 c -4.4,-7.6 -3.6,-17.6 3.2,-24.4 3.6,-4 8.8,-5.6 14,-5.6 3.6,0 7.2,0.8 10,2.8 z m -102.8,-30 c -22,0 -40,-18 -40,-40 v 80 c 0,11.2 8.8,20 20,20 h 160 c 11.2,0 20,-8.8 20,-20 v -200 c 0,88.4 -71.6,160 -160,160 z m 141.2,-1.2 c 11.6,11.6 11.6,30.8 0,42.4 -11.6,11.6 -30.8,11.6 -42.4,0 -11.6,-11.6 -11.6,-30.8 0,-42.4 6,-6 13.6,-8.8 21.2,-8.8 7.6,0 15.2,2.8 21.2,8.8 z m -1.2,-258.8 h -160 c -11.2,0 -20,8.8 -20,20 v 200 c 0,-88.4 71.6,-160 160,-160 22,0 40,17.6 40,40 v -80 c 0,-11.2 -8.8,-20 -20,-20 z m -118.8,61.2 c -11.6,11.6 -30.8,11.6 -42.4,0 -11.6,-11.6 -11.6,-30.8 0,-42.4 6,-6 13.6,-8.8 21.2,-8.8 7.6,0 15.2,2.8 21.2,8.8 11.6,11.6 11.6,30.8 0,42.4 z m -4,-31.6 c 4.4,7.6 3.6,17.6 -3.2,24.4 -6.8,6.4 -16.8,7.6 -24.4,2.8 z m 92.4,267.2 27.6,-27.2 c 4.4,7.6 3.6,17.6 -3.2,24.4 -6.8,6.4 -16.8,7.6 -24.4,2.8 z" style="stroke-width:4"></path>
<path id="SvgjsPath1074" d="m -1701.2468,118.39096 10,10 -40,40 c -10,10 -10,30 0,40 l 20,-20 40,-40 10,10 v -40 z m 0,130 -10,-10 40,-40 c 10,-10 10,-30 0,-40 l -20,20 -40,40 -10,-10 v 40 z m -60,35.2 c -22,0 -40,-18 -40,-40 v 80 c 0,11.2 8.8,20 20,20 h 160 c 11.2,0 20,-8.8 20,-20 v -200 c 0,88.4 -71.6,160 -160,160 z m 145.2,25.2 -20,20 4.8,4.8 v 0.4 h -19.6 v -20 l 4.8,4.8 20,-20 10,-10 c 4.8,4.8 4.8,15.2 0,20 z m -15.2,-40.4 v 0 l 19.6,-0.4 v 20 l -4.8,-4.8 -20,20 -10,10 c -4.8,-4.8 -4.8,-15.2 0,-20 l 20,-20 z m 10,-244.8 h -160 c -11.2,0 -20,8.8 -20,20 v 200 c 0,-88.4 71.6,-160 160,-160 22,0 40,17.6 40,40 v -80 c 0,-11.2 -8.8,-20 -20,-20 z m -134.8,50 -20,20 4.8,4.8 v 0.4 h -19.6 v -20 l 4.8,4.8 20,-20 10,-10 c 4.8,4.8 4.8,15.2 0,20 z m 4.4,-20.4 -4.8,-4.8 -20,20 -10,10 c -4.8,-4.8 -4.8,-15.2 0,-20 l 20,-20 -4.8,-4.8 v -0.4 h 19.6 z" style="stroke-width:4"></path>
<g id="SvgjsG1073" transform="matrix(4,0,0,4,-1557.9527,-2172.6092)">
	<path id="SvgjsPath1072" class="st0" d="m 320,519.3 h 40 c 2.8,0 5,2.2 5,5 v 70 c 0,2.8 -2.2,5 -5,5 h -40 c -2.8,0 -5,-2.2 -5,-5 v -70 c 0,-2.8 2.3,-5 5,-5 z"></path>
	<path id="SvgjsPath1071" class="st1" d="m 355,534.3 c -22.1,0 -40,17.9 -40,40 0,5.5 4.5,10 10,10 22.1,0 40,-17.9 40,-40 0,-5.6 -4.5,-10 -10,-10 z"></path>
	<path id="SvgjsPath1070" class="st2" d="m 329.9,521.8 -4.9,10 v 2.5 h 6 v 2.5 h 2.5 v -2.5 h 1.5 v -2.5 h -1.5 v -5 H 331 v 5 h -3.4 l 4.9,-10 z"></path>
	<path id="SvgjsPath1069" class="st1" d="m 318.5,526.8 v 2.5 H 316 v 2.5 h 2.5 v 2.5 h 2.5 v -2.5 h 2.5 v -2.5 H 321 v -2.5 z"></path>
	<path id="SvgjsPath1068" class="st2" d="m 350.1,596.8 4.9,-10 v -2.5 h -6 v -2.5 h -2.5 v 2.5 H 345 v 2.5 h 1.5 v 5 h 2.5 v -5 h 3.4 l -4.9,10 z"></path>
	<path id="SvgjsPath1067" class="st1" d="m 361.5,591.8 v -2.5 h 2.5 v -2.5 h -2.5 v -2.5 H 359 v 2.5 h -2.5 v 2.5 h 2.5 v 2.5 z"></path>
	<g id="SvgjsG1066" transform="translate(119.99999,429.99998)">
		<path id="SvgjsPath1065" class="st1" d="m 210.7,116.8 h 10 c 1.4,0 2.2,1 1.9,2.3 l -5.1,18 c -0.4,1.2 -1.8,2.3 -3.1,2.3 h -10 c -1.4,0 -2.2,-1 -1.9,-2.3 l 5.1,-18 c 0.3,-1.3 1.8,-2.3 3.1,-2.3 z"></path>
		<path id="SvgjsPath1064" class="st3" d="m 212.5,119.3 h 5 c 1.4,0 2.2,1 1.9,2.3 l -3.7,13 c -0.4,1.2 -1.8,2.3 -3.1,2.3 h -5 c -1.4,0 -2.2,-1 -1.9,-2.3 l 3.7,-13 c 0.3,-1.3 1.7,-2.3 3.1,-2.3 z"></path>
	</g>
	<g id="SvgjsG1063" transform="translate(129.99998,422.49998)">
		<path id="SvgjsPath1062" class="st1" d="m 210.7,116.8 h 10 c 1.4,0 2.2,1 1.9,2.3 l -5.1,18 c -0.4,1.2 -1.8,2.3 -3.1,2.3 h -10 c -1.4,0 -2.2,-1 -1.9,-2.3 l 5.1,-18 c 0.3,-1.3 1.8,-2.3 3.1,-2.3 z"></path>
		<path id="SvgjsPath1061" class="st4" d="m 212.5,119.3 h 5 c 1.4,0 2.2,1 1.9,2.3 l -3.7,13 c -0.4,1.2 -1.8,2.3 -3.1,2.3 h -5 c -1.4,0 -2.2,-1 -1.9,-2.3 l 3.7,-13 c 0.3,-1.3 1.7,-2.3 3.1,-2.3 z"></path>
	</g>
	<g id="SvgjsG1060" transform="translate(127.49999,437.49998)">
		<path id="SvgjsPath1059" class="st1" d="m 210.7,116.8 h 10 c 1.4,0 2.2,1 1.9,2.3 l -5.1,18 c -0.4,1.2 -1.8,2.3 -3.1,2.3 h -10 c -1.4,0 -2.2,-1 -1.9,-2.3 l 5.1,-18 c 0.3,-1.3 1.8,-2.3 3.1,-2.3 z"></path>
		<path id="SvgjsPath1058" class="st5" d="m 212.5,119.3 h 5 c 1.4,0 2.2,1 1.9,2.3 l -3.7,13 c -0.4,1.2 -1.8,2.3 -3.1,2.3 h -5 c -1.4,0 -2.2,-1 -1.9,-2.3 l 3.7,-13 c 0.3,-1.3 1.7,-2.3 3.1,-2.3 z"></path>
	</g>
	<g id="SvgjsG1057" transform="translate(137.49998,429.99999)">
		<path id="SvgjsPath1056" class="st1" d="m 210.7,116.8 h 10 c 1.4,0 2.2,1 1.9,2.3 l -5.1,18 c -0.4,1.2 -1.8,2.3 -3.1,2.3 h -10 c -1.4,0 -2.2,-1 -1.9,-2.3 l 5.1,-18 c 0.3,-1.3 1.8,-2.3 3.1,-2.3 z"></path>
		<path id="SvgjsPath1055" class="st6" d="m 212.5,119.3 h 5 c 1.4,0 2.2,1 1.9,2.3 l -3.7,13 c -0.4,1.2 -1.8,2.3 -3.1,2.3 h -5 c -1.4,0 -2.2,-1 -1.9,-2.3 l 3.7,-13 c 0.3,-1.3 1.7,-2.3 3.1,-2.3 z"></path>
	</g>
<g id="SvgjsG1054" transform="translate(187.05086,433.85231)"><path id="SvgjsPath1053" class="st1" d="m 210.7,116.8 h 10 c 1.4,0 2.2,1 1.9,2.3 l -5.1,18 c -0.4,1.2 -1.8,2.3 -3.1,2.3 h -10 c -1.4,0 -2.2,-1 -1.9,-2.3 l 5.1,-18 c 0.3,-1.3 1.8,-2.3 3.1,-2.3 z"></path><path id="SvgjsPath1052" class="st3" d="m 212.5,119.3 h 5 c 1.4,0 2.2,1 1.9,2.3 l -3.7,13 c -0.4,1.2 -1.8,2.3 -3.1,2.3 h -5 c -1.4,0 -2.2,-1 -1.9,-2.3 l 3.7,-13 c 0.3,-1.3 1.7,-2.3 3.1,-2.3 z" style="fill:#e73d3d;fill-opacity:1"></path></g><g id="SvgjsG1051" transform="translate(197.05085,426.35231)"><path id="SvgjsPath1050" class="st1" d="m 210.7,116.8 h 10 c 1.4,0 2.2,1 1.9,2.3 l -5.1,18 c -0.4,1.2 -1.8,2.3 -3.1,2.3 h -10 c -1.4,0 -2.2,-1 -1.9,-2.3 l 5.1,-18 c 0.3,-1.3 1.8,-2.3 3.1,-2.3 z"></path><path id="SvgjsPath1049" class="st4" d="m 212.5,119.3 h 5 c 1.4,0 2.2,1 1.9,2.3 l -3.7,13 c -0.4,1.2 -1.8,2.3 -3.1,2.3 h -5 c -1.4,0 -2.2,-1 -1.9,-2.3 l 3.7,-13 c 0.3,-1.3 1.7,-2.3 3.1,-2.3 z" style="fill:#00a6ff;fill-opacity:1"></path></g><g id="SvgjsG1048" transform="translate(194.55086,441.35231)"><path id="SvgjsPath1047" class="st1" d="m 210.7,116.8 h 10 c 1.4,0 2.2,1 1.9,2.3 l -5.1,18 c -0.4,1.2 -1.8,2.3 -3.1,2.3 h -10 c -1.4,0 -2.2,-1 -1.9,-2.3 l 5.1,-18 c 0.3,-1.3 1.8,-2.3 3.1,-2.3 z"></path><path id="SvgjsPath1046" class="st5" d="m 212.5,119.3 h 5 c 1.4,0 2.2,1 1.9,2.3 l -3.7,13 c -0.4,1.2 -1.8,2.3 -3.1,2.3 h -5 c -1.4,0 -2.2,-1 -1.9,-2.3 l 3.7,-13 c 0.3,-1.3 1.7,-2.3 3.1,-2.3 z" style="fill:#f39c13;fill-opacity:1"></path></g><g id="SvgjsG1045" transform="translate(204.55085,433.85232)"><path id="SvgjsPath1044" class="st1" d="m 210.7,116.8 h 10 c 1.4,0 2.2,1 1.9,2.3 l -5.1,18 c -0.4,1.2 -1.8,2.3 -3.1,2.3 h -10 c -1.4,0 -2.2,-1 -1.9,-2.3 l 5.1,-18 c 0.3,-1.3 1.8,-2.3 3.1,-2.3 z"></path><path id="SvgjsPath1043" class="st6" d="m 212.5,119.3 h 5 c 1.4,0 2.2,1 1.9,2.3 l -3.7,13 c -0.4,1.2 -1.8,2.3 -3.1,2.3 h -5 c -1.4,0 -2.2,-1 -1.9,-2.3 l 3.7,-13 c 0.3,-1.3 1.7,-2.3 3.1,-2.3 z" style="fill:#7eb960;fill-opacity:1"></path></g></g>
<g id="SvgjsG1042" transform="matrix(1.909091,0,0,1.9999989,258.65313,1251.1156)">
</g>
<g id="SvgjsG1041" transform="matrix(1.909091,0,0,1.9999989,277.74403,1236.1156)">
</g>
<g id="SvgjsG1040" transform="matrix(1.909091,0,0,1.9999989,378.65313,1491.1156)">
</g>
<g id="SvgjsG1039" transform="matrix(1.909091,0,0,1.9999989,397.74403,1476.1156)">
</g>
<path id="SvgjsPath1038" d="m -1408.4468,213.99086 -3.2,10.8 c -1.6,4.8 -7.2,9.2 -12.4,9.2 h -20 c -5.6,0 -8.8,-4 -7.6,-9.2 l 14.8,-52 c 1.2,-5.2 6.8,-9.2 12.4,-9.2 h 11.6 l -11.6,41.2 c -1.2,5.2 2,9.2 7.6,9.2 z m 11.6,-71.2 -14.8,52 c -1.2,5.2 2,9.2 7.6,9.2 h 20 c 5.2,0 10.8,-4.4 12.4,-9.2 l 14.8,-52 c 1.2,-5.2 -2,-9.2 -7.6,-9.2 h -20 c -5.6,0 -11.2,4 -12.4,9.2 z m 92.4,-99.2 v 80 c 0,-22.4 -18,-40 -40,-40 -88.4,0 -160,71.6 -160,160 v -200 c 0,-11.2 8.8,-20 20,-20 h 160 c 11.2,0 20,8.8 20,20 z m -166,20 h -10 v -10 h -10 v 10 h -10 v 10 h 10 v 10 h 10 v -10 h 10 z m 18,20 c 12.4,-8.8 13.2,-8.4 22.8,-17.2 3.2,-2.8 5.2,-8.4 5.2,-12.8 0,-11.2 -9.2,-20 -20,-20 -11.2,0 -20,8.8 -20,20 v 2 h 10 v -2 c 0,-5.6 4.4,-10 10,-10 5.6,0 10,4.4 10,10 0,2.4 -2,6.8 -4,8.4 -10.8,8.4 -10.4,6.8 -26,17.6 v 14 h 20 20 v -10 -4 h -10 v 4 h -10 z m 148,40 v 200 c 0,11.2 -8.8,20 -20,20 h -160 c -11.2,0 -20,-8.8 -20,-20 v -80 c 0,22 18,40 40,40 88.4,0 160,-71.6 160,-160 z m -34,180 h 10 v 10 h 10 v -10 h 10 v -10 h -10 v -10 h -10 v 10 h -10 z m -6,-30 h -20 -20 v 10 4 h 10 v -4 h 10 8 c -12.4,8.8 -13.2,8.4 -22.8,17.2 -3.2,2.8 -5.2,8.4 -5.2,12.8 0,10.8 8.8,20 20,20 11.2,0 20,-8.8 20,-20 v -2 h -10 v 2 c 0,5.6 -4.4,10 -10,10 -5.6,0 -10,-4.4 -10,-10 0,-2.4 2,-6.8 4,-8.4 10.8,-8.4 10.4,-6.8 26,-17.6 z" style="stroke-width:4"></path>
<g id="SvgjsG1037" transform="translate(-888.84677,23.47746)">
	<path id="SvgjsPath1036" class="st0" d="m -296.6,-0.1 h 160 c 11,0 20,9 20,20 v 280 c 0,11 -9,20 -20,20 h -160 c -11,0 -20,-9 -20,-20 v -280 c 0,-11 9,-20 20,-20 z"></path>
	<path id="SvgjsPath1035" class="st1" d="m -156.6,59.9 c -88.4,0 -160,71.6 -160,160 0,22.1 17.9,40 40,40 88.4,0 160,-71.6 160,-160 0,-22.1 -17.9,-40 -40,-40 z"></path>
	<path id="SvgjsPath1034" class="st5" d="m -304.8,159.9 c -7.5,18.5 -11.8,38.8 -11.8,60 0,22.1 17.9,40 40,40 l 60,-100 z"></path>
	<path id="SvgjsPath1033" class="st7" d="m -216.6,159.9 -60,100 c 67.1,0 124.5,-41.4 148.3,-100 z"></path>
	<path id="SvgjsPath1032" class="st3" d="m -156.6,59.9 c -67.1,0 -124.5,41.4 -148.3,100 h 88.2 z"></path>
	<path id="SvgjsPath1031" class="st4" d="m -156.6,59.9 -60,100 h 88.3 c 7.5,-18.5 11.8,-38.8 11.8,-60 -0.1,-22.1 -18,-40 -40.1,-40 z"></path>
	<path id="SvgjsPath1030" class="st5" d="m -303.6,34.9 c -1.9,4.6 -2.9,9.7 -2.9,15 0,5.5 4.5,10 10,10 l 15,-25 z"></path>
	<path id="SvgjsPath1029" class="st7" d="m -281.6,34.9 -15,25 c 16.8,0 31.1,-10.3 37.1,-25 z"></path>
	<path id="SvgjsPath1028" class="st3" d="m -266.6,9.9 c -16.8,0 -31.1,10.3 -37.1,25 h 22.1 z"></path>
	<path id="SvgjsPath1027" class="st4" d="m -266.6,9.9 -15,25 h 22.1 c 1.9,-4.6 2.9,-9.7 2.9,-15 0,-5.5 -4.5,-10 -10,-10 z"></path>
	<path id="SvgjsPath1026" class="st5" d="m -173.6,284.9 c -1.9,4.6 -2.9,9.7 -2.9,15 0,5.5 4.5,10 10,10 l 15,-25 z"></path>
	<path id="SvgjsPath1025" class="st7" d="m -151.6,284.9 -15,25 c 16.8,0 31.1,-10.3 37.1,-25 z"></path>
	<path id="SvgjsPath1024" class="st3" d="m -136.6,259.9 c -16.8,0 -31.1,10.3 -37.1,25 h 22.1 z"></path>
	<path id="SvgjsPath1023" class="st4" d="m -136.6,259.9 -15,25 h 22.1 c 1.9,-4.6 2.9,-9.7 2.9,-15 0,-5.5 -4.5,-10 -10,-10 z"></path>
	<path id="SvgjsPath1022" class="st8" d="m -156.6,59.9 c -67.1,0 -124.5,41.4 -148.3,100 -7.5,18.5 -11.8,38.8 -11.8,60 0,22.1 17.9,40 40,40 67.1,0 124.5,-41.4 148.3,-100 7.5,-18.5 11.8,-38.8 11.8,-60 0,-22.1 -17.9,-40 -40,-40 z"></path>
	<path id="SvgjsPath1021" class="st8" d="m -266.6,9.9 c -16.8,0 -31.1,10.3 -37.1,25 -1.9,4.6 -2.9,9.7 -2.9,15 0,5.5 4.5,10 10,10 16.8,0 31.1,-10.3 37.1,-25 1.9,-4.6 2.9,-9.7 2.9,-15 0,-5.5 -4.5,-10 -10,-10 z"></path>
	<path id="SvgjsPath1020" class="st8" d="m -136.6,259.9 c -16.8,0 -31.1,10.3 -37.1,25 -1.9,4.6 -2.9,9.7 -2.9,15 0,5.5 4.5,10 10,10 16.8,0 31.1,-10.3 37.1,-25 1.9,-4.6 2.9,-9.7 2.9,-15 0,-5.5 -4.5,-10 -10,-10 z"></path>
</g>
<g id="SvgjsG1019" transform="translate(-888.84677,23.477446)">
	<path id="SvgjsPath1018" class="st0" d="m -296.6,-0.1 h 160 c 11,0 20,9 20,20 v 280 c 0,11 -9,20 -20,20 h -160 c -11,0 -20,-9 -20,-20 v -280 c 0,-11 9,-20 20,-20 z"></path>
	<path id="SvgjsPath1017" class="st1" d="m -156.6,59.9 c -88.4,0 -160,71.6 -160,160 0,22.1 17.9,40 40,40 88.4,0 160,-71.6 160,-160 0,-22.1 -17.9,-40 -40,-40 z"></path>
	<path id="SvgjsPath1016" class="st5" d="m -304.8,159.9 c -7.5,18.5 -11.8,38.8 -11.8,60 0,22.1 17.9,40 40,40 l 60,-100 z"></path>
	<path id="SvgjsPath1015" class="st7" d="m -216.6,159.9 -60,100 c 67.1,0 124.5,-41.4 148.3,-100 z"></path>
	<path id="SvgjsPath1014" class="st3" d="m -156.6,59.9 c -67.1,0 -124.5,41.4 -148.3,100 h 88.2 z"></path>
	<path id="SvgjsPath1013" class="st4" d="m -156.6,59.9 -60,100 h 88.3 c 7.5,-18.5 11.8,-38.8 11.8,-60 -0.1,-22.1 -18,-40 -40.1,-40 z"></path>
	<path id="SvgjsPath1012" class="st5" d="m -303.6,34.9 c -1.9,4.6 -2.9,9.7 -2.9,15 0,5.5 4.5,10 10,10 l 15,-25 z"></path>
	<path id="SvgjsPath1011" class="st7" d="m -281.6,34.9 -15,25 c 16.8,0 31.1,-10.3 37.1,-25 z"></path>
	<path id="SvgjsPath1010" class="st3" d="m -266.6,9.9 c -16.8,0 -31.1,10.3 -37.1,25 h 22.1 z"></path>
	<path id="SvgjsPath1009" class="st4" d="m -266.6,9.9 -15,25 h 22.1 c 1.9,-4.6 2.9,-9.7 2.9,-15 0,-5.5 -4.5,-10 -10,-10 z"></path>
	<path id="SvgjsPath1008" class="st5" d="m -173.6,284.9 c -1.9,4.6 -2.9,9.7 -2.9,15 0,5.5 4.5,10 10,10 l 15,-25 z"></path>
	<path id="SvgjsPath1007" class="st7" d="m -151.6,284.9 -15,25 c 16.8,0 31.1,-10.3 37.1,-25 z"></path>
	<path id="SvgjsPath1006" class="st3" d="m -136.6,259.9 c -16.8,0 -31.1,10.3 -37.1,25 h 22.1 z"></path>
	<path id="SvgjsPath1005" class="st4" d="m -136.6,259.9 -15,25 h 22.1 c 1.9,-4.6 2.9,-9.7 2.9,-15 0,-5.5 -4.5,-10 -10,-10 z"></path>
	<path id="SvgjsPath1004" class="st8" d="m -156.6,59.9 c -67.1,0 -124.5,41.4 -148.3,100 -7.5,18.5 -11.8,38.8 -11.8,60 0,22.1 17.9,40 40,40 67.1,0 124.5,-41.4 148.3,-100 7.5,-18.5 11.8,-38.8 11.8,-60 0,-22.1 -17.9,-40 -40,-40 z"></path>
	<path id="SvgjsPath1003" class="st8" d="m -266.6,9.9 c -16.8,0 -31.1,10.3 -37.1,25 -1.9,4.6 -2.9,9.7 -2.9,15 0,5.5 4.5,10 10,10 16.8,0 31.1,-10.3 37.1,-25 1.9,-4.6 2.9,-9.7 2.9,-15 0,-5.5 -4.5,-10 -10,-10 z"></path>
	<path id="SvgjsPath1002" class="st8" d="m -136.6,259.9 c -16.8,0 -31.1,10.3 -37.1,25 -1.9,4.6 -2.9,9.7 -2.9,15 0,5.5 4.5,10 10,10 16.8,0 31.1,-10.3 37.1,-25 1.9,-4.6 2.9,-9.7 2.9,-15 0,-5.5 -4.5,-10 -10,-10 z"></path>
</g>
<path id="SvgjsPath1001" d="m -1022.3376,533.46378 10,10 -40,40 c -10,10 -10,30 0,40 l 20,-20 40.00005,-40 9.99999,10 v -40 z m 0,130 -10,-10 40.00005,-40 c 9.99999,-10 9.99999,-30 0,-40 l -20.00005,20 -40,40 -10,-10 v 40 z" style="stroke-width:4" sodipodi:nodetypes="ccsccccccccscccccc"></path><path id="SvgjsPath1000" d="m -216.04778,295.7705 c -15.2,0 -30.8,5.6 -42.4,17.6 -23.6,23.6 -23.6,61.6 0,84.8 23.6,23.6 61.6,23.6 84.8,0 23.2,-23.6 23.6,-61.6 0,-84.8 -11.6,-12 -26.8,-17.6 -42.4,-17.6 z m 0,20 c 6.8,0 14,2 20.4,5.6 l -54.8,54.8 c -9.2,-15.2 -6.8,-35.6 6.4,-48.8 7.6,-8 17.6,-11.6 28,-11.6 z m 34.4,19.6 c 9.2,15.2 6.8,35.6 -6.4,48.8 -13.2,13.2 -33.2,15.2 -48.8,6 z" style="stroke-width:4" sodipodi:nodetypes="sccscsscccscscc"></path></svg><style>@media (prefers-color-scheme: light) { :root { filter: none; } }
</style></svg>