<?xml version="1.0" encoding="UTF-8" standalone="no"?>
<svg
   xml:space="preserve"
   version="1.1"
   style="image-rendering:optimizeQuality;shape-rendering:geometricPrecision;text-rendering:geometricPrecision"
   viewBox="0 0 785 785"
   x="0px"
   y="0px"
   fill-rule="evenodd"
   clip-rule="evenodd"
   id="svg14"
   sodipodi:docname="noun_Plus_1809808.svg"
   width="785"
   height="785"
   inkscape:version="1.1 (c68e22c387, 2021-05-23)"
   xmlns:inkscape="http://www.inkscape.org/namespaces/inkscape"
   xmlns:sodipodi="http://sodipodi.sourceforge.net/DTD/sodipodi-0.dtd"
   xmlns="http://www.w3.org/2000/svg"
   xmlns:svg="http://www.w3.org/2000/svg"><sodipodi:namedview
     id="namedview16"
     pagecolor="#ffffff"
     bordercolor="#666666"
     borderopacity="1.0"
     inkscape:pageshadow="2"
     inkscape:pageopacity="0.0"
     inkscape:pagecheckerboard="0"
     showgrid="false"
     inkscape:zoom="0.6677686"
     inkscape:cx="392.35149"
     inkscape:cy="497.92698"
     inkscape:window-width="1920"
     inkscape:window-height="1020"
     inkscape:window-x="0"
     inkscape:window-y="0"
     inkscape:window-maximized="1"
     inkscape:current-layer="svg14" /><defs
     id="defs4"><style
       type="text/css"
       id="style2">
   
    .fil0 {fill:black}
   
  </style></defs><g
     id="g8"
     transform="translate(-31,-31)"><path
       class="fil0"
       d="M 31,476 V 370 c 0,-27 22,-49 50,-49 H 321 V 81 c 0,-28 22,-50 49,-50 h 106 c 28,0 50,22 50,50 v 240 h 240 c 27,0 50,22 50,49 v 106 c 0,28 -23,50 -50,50 H 526 v 240 c 0,27 -22,50 -50,50 H 370 c -27,0 -49,-23 -49,-50 V 526 H 81 C 53,526 31,504 31,476 Z"
       id="path6" /></g></svg>
