<?xml version="1.0" encoding="UTF-8" standalone="no"?>
<svg
   version="1.1"
   x="0px"
   y="0px"
   viewBox="0 0 87.762543 41.27668"
   enable-background="new 0 0 100 100"
   xml:space="preserve"
   id="svg8"
   sodipodi:docname="noun_Discard Pile_219524.svg"
   width="87.762543"
   height="41.27668"
   inkscape:version="1.1 (c68e22c387, 2021-05-23)"
   xmlns:inkscape="http://www.inkscape.org/namespaces/inkscape"
   xmlns:sodipodi="http://sodipodi.sourceforge.net/DTD/sodipodi-0.dtd"
   xmlns="http://www.w3.org/2000/svg"
   xmlns:svg="http://www.w3.org/2000/svg"><defs
     id="defs12" /><sodipodi:namedview
     id="namedview10"
     pagecolor="#ffffff"
     bordercolor="#666666"
     borderopacity="1.0"
     inkscape:pageshadow="2"
     inkscape:pageopacity="0.0"
     inkscape:pagecheckerboard="0"
     showgrid="false"
     inkscape:zoom="5.656"
     inkscape:cx="45.084866"
     inkscape:cy="32.973833"
     inkscape:window-width="1920"
     inkscape:window-height="1020"
     inkscape:window-x="0"
     inkscape:window-y="0"
     inkscape:window-maximized="1"
     inkscape:current-layer="svg8" /><path
     d="M 12.761917,16.2 0.46191747,26.9 c -0.4,0.3 -0.7,1 -0.2,1.8 0.5,0.8 1.70000003,1.5 3.50000003,1.9 L 45.361917,40.9 c 0.4,0.1 4.2,1 5.8,-0.4 l 15.6,-13.6 h -2.6 -17 -20.2 c -3.3,0 -7.9,-1.3 -10.3,-4.9 z m 61.7,5.3 -12.3,-18.7 c -1.5,-2.2 -4.9,-2.8 -6.5,-2.8 H 9.9619175 c -1.6,0 -2,0.4 -2,0.4 0,0 0.1,0.3 0.3,0.5 L 20.561917,19.6 c 1.4,2.1 4.6,2.8 6.5,2.8 h 45.7 c 1.6,0 2,-0.4 2,-0.4 -0.1,0.1 -0.2,-0.3 -0.3,-0.5 m 11.7,-3.4 -14.8,-9.5 6.8,10.4 c 0.9,1.4 1.5,3.5 0.4,5.3 -1,1.8 -3,2.6 -6,2.6 h -3.4 l -9.4,8.2 3.3,2.1 c 3.2,2.1 7.7,0 10,-1.9 l 11.8,-9.8 c 4.2,-3.3 3.1,-6.2 1.3,-7.4"
     id="path2" /></svg>
